<mxfile host="app.diagrams.net" agent="Mozilla/5.0 (Windows NT 10.0; Win64; x64; rv:138.0) Gecko/20100101 Firefox/138.0" version="27.0.6">
  <diagram name="Page-1" id="gnzkqV7MSjKjHbx5_xEv">
    <mxGraphModel dx="786" dy="472" grid="1" gridSize="10" guides="1" tooltips="1" connect="1" arrows="1" fold="1" page="1" pageScale="1" pageWidth="850" pageHeight="1100" math="0" shadow="0">
      <root>
        <mxCell id="0" />
        <mxCell id="1" parent="0" />
        <mxCell id="WMyUmVWaXYhzYzBtaCBb-1" value="&lt;div&gt;rv&lt;/div&gt;" style="rounded=0;whiteSpace=wrap;html=1;" vertex="1" parent="1">
          <mxGeometry x="290" y="220" width="80" height="30" as="geometry" />
        </mxCell>
        <mxCell id="WMyUmVWaXYhzYzBtaCBb-3" value="&lt;div&gt;Booking&lt;/div&gt;" style="rounded=0;whiteSpace=wrap;html=1;" vertex="1" parent="1">
          <mxGeometry x="490" y="210" width="80" height="30" as="geometry" />
        </mxCell>
        <mxCell id="WMyUmVWaXYhzYzBtaCBb-4" value="&lt;div&gt;Account&lt;/div&gt;" style="rounded=0;whiteSpace=wrap;html=1;" vertex="1" parent="1">
          <mxGeometry x="360" y="140" width="80" height="30" as="geometry" />
        </mxCell>
        <mxCell id="WMyUmVWaXYhzYzBtaCBb-5" value="&lt;div&gt;Image&lt;/div&gt;" style="rounded=0;whiteSpace=wrap;html=1;" vertex="1" parent="1">
          <mxGeometry x="490" y="140" width="80" height="30" as="geometry" />
        </mxCell>
        <mxCell id="WMyUmVWaXYhzYzBtaCBb-6" value="&lt;div&gt;damagereport&lt;/div&gt;" style="rounded=0;whiteSpace=wrap;html=1;" vertex="1" parent="1">
          <mxGeometry x="410" y="300" width="110" height="30" as="geometry" />
        </mxCell>
        <mxCell id="WMyUmVWaXYhzYzBtaCBb-7" value="&lt;div&gt;refreshtoken&lt;/div&gt;" style="rounded=0;whiteSpace=wrap;html=1;" vertex="1" parent="1">
          <mxGeometry x="330" y="60" width="120" height="30" as="geometry" />
        </mxCell>
      </root>
    </mxGraphModel>
  </diagram>
</mxfile>
